<svg version="1.1" id="Layer_1" xmlns="http://www.w3.org/2000/svg" xmlns:xlink="http://www.w3.org/1999/xlink" x="0px" y="0px"
	 width="100%" viewBox="0 0 896 848" enable-background="new 0 0 896 848" xml:space="preserve">
<path fill="#000000" opacity="1.000000" stroke="none" 
	d="
M228.624039,768.202271 
	C226.842331,756.744385 225.558182,745.658264 224.963440,734.524414 
	C223.612289,709.230225 222.933197,683.898682 223.830124,658.586121 
	C225.528290,610.661011 232.918808,563.581238 246.187500,517.468079 
	C256.296143,482.337128 269.003601,448.233582 285.935455,415.741669 
	C316.622833,356.853210 363.896576,317.076874 425.497589,293.485321 
	C462.458801,279.330109 500.914581,271.621765 539.984985,266.717957 
	C577.287537,262.036041 614.724243,258.404816 651.999573,253.529236 
	C694.999756,247.904831 737.425049,239.550674 777.757629,222.804504 
	C787.308594,218.838913 796.579956,214.298569 805.739136,209.524124 
	C810.502502,207.041077 815.069153,207.006546 819.286072,210.409225 
	C823.672180,213.948395 824.682861,218.703094 823.046021,223.931412 
	C811.649475,260.333740 803.627563,297.611237 794.271667,334.542725 
	C783.406372,377.432281 769.895752,419.310242 748.104248,458.150024 
	C719.565796,509.015137 682.179443,551.634766 632.823669,583.287598 
	C598.109192,605.550659 560.147156,619.161987 519.664368,626.299561 
	C487.855774,631.907715 455.724304,635.062500 423.758850,639.468506 
	C389.263977,644.223206 354.959930,650.006226 322.554932,663.649902 
	C320.281891,664.606873 317.783295,665.114746 315.340607,665.566956 
	C305.417450,667.403931 299.008026,662.442017 297.607208,652.330017 
	C296.221313,642.325684 298.151154,632.733093 301.109436,623.356995 
	C310.808685,592.616028 328.149689,566.343994 349.122375,542.237183 
	C374.498108,513.069458 405.450836,491.564850 440.422577,475.530487 
	C454.048126,469.283264 467.612000,462.901459 481.203308,456.579559 
	C482.411713,456.017456 483.606079,455.424286 484.823547,454.882904 
	C486.812683,453.998474 488.429932,452.766815 487.614471,450.329865 
	C486.732208,447.693237 484.554840,448.201599 482.596130,448.780609 
	C473.016388,451.612579 463.410156,454.364899 453.890778,457.389160 
	C426.536560,466.079346 399.870239,476.408417 374.788574,490.560608 
	C319.273010,521.884949 282.998383,568.372498 264.171051,629.114929 
	C252.372284,667.181030 246.024399,705.853699 248.373154,745.720581 
	C249.303513,761.512146 251.675201,777.149170 256.195892,792.386047 
	C258.203278,799.151733 256.366028,803.917908 251.011780,806.132629 
	C245.641846,808.353943 240.727264,806.404297 237.376373,800.289246 
	C233.071976,792.434021 231.975250,783.557861 229.850082,775.019714 
	C229.328537,772.924255 229.063751,770.765015 228.624039,768.202271 
z"/>
<path fill="#000000" opacity="1.000000" stroke="none" 
	d="
M374.318451,113.552185 
	C434.555603,132.659454 486.995789,163.905624 531.136475,208.705017 
	C540.613586,218.323563 549.081055,228.868179 556.256042,240.369888 
	C557.197693,241.879410 558.601990,243.235199 558.425842,245.822830 
	C551.174377,247.752640 543.535034,248.033234 536.058350,249.049057 
	C502.174988,253.652664 468.713898,260.133759 436.114685,270.625244 
	C433.528046,271.457733 431.437195,271.431458 429.113342,269.784302 
	C403.532013,251.652328 374.554382,242.383804 343.973206,237.318222 
	C337.739532,236.285675 331.539764,235.049210 325.322784,233.915161 
	C323.745819,233.627502 322.167084,232.960159 319.719269,234.227112 
	C335.286957,241.475159 350.346619,248.360565 365.294128,255.481354 
	C380.256165,262.609100 395.402222,269.446075 408.834778,279.226166 
	C407.898224,281.912872 405.825195,281.998322 404.245270,282.694061 
	C357.802948,303.145325 318.719513,332.721832 289.961487,375.024261 
	C287.622772,378.464417 285.332947,379.354919 281.267517,378.332428 
	C252.425339,371.078033 228.012527,355.840881 205.936172,336.550385 
	C172.765259,307.565338 148.817490,271.760284 129.634506,232.450180 
	C112.769295,197.889709 103.679947,160.869843 94.773689,123.782486 
	C90.109360,104.359337 85.447739,84.938324 79.580208,65.835587 
	C78.113976,61.062031 78.486885,56.976444 82.690323,53.764927 
	C86.515167,50.842667 90.103683,52.149521 93.848785,54.131195 
	C120.813622,68.399284 149.300491,78.513992 179.084244,84.990273 
	C196.202713,88.712585 213.649139,90.018265 231.037659,91.715240 
	C259.685303,94.511009 288.375580,96.834618 316.852875,101.270271 
	C336.125031,104.272110 355.178253,108.099213 374.318451,113.552185 
z"/>
</svg>